<!DOCTYPE svg PUBLIC "-//W3C//DTD SVG 1.1//EN" "http://www.w3.org/Graphics/SVG/1.1/DTD/svg11.dtd">
<!-- Uploaded to: SVG Repo, www.svgrepo.com, Transformed by: SVG Repo Mixer Tools -->
<svg fill="#00bd02" width="64px" height="64px" viewBox="-5.7 -5.7 30.40 30.40" xmlns="http://www.w3.org/2000/svg" class="cf-icon-svg" stroke="#00bd02" stroke-width="0.38">
<g id="SVGRepo_bgCarrier" stroke-width="0"/>
<g id="SVGRepo_tracerCarrier" stroke-linecap="round" stroke-linejoin="round"/>
<g id="SVGRepo_iconCarrier">
<path d="M13.27 14.91a.554.554 0 0 1-.392-.946 6.201 6.201 0 1 0-8.763 0 .554.554 0 1 1-.784.784 7.31 7.31 0 1 1 10.331 0 .55.55 0 0 1-.392.162zm-2.16-2.159a.554.554 0 0 1-.392-.946 3.142 3.142 0 1 0-4.444 0 .554.554 0 0 1-.783.784 4.25 4.25 0 1 1 6.011 0 .553.553 0 0 1-.391.162zm-1.117 3.32H9.05V10.99a1.511 1.511 0 1 0-1.108 0v5.081H7a.554.554 0 0 0 0 1.109h2.993a.554.554 0 0 0 0-1.109z"/>
</g>
</svg>