<!DOCTYPE svg PUBLIC "-//W3C//DTD SVG 1.1//EN" "http://www.w3.org/Graphics/SVG/1.1/DTD/svg11.dtd">
<!-- Uploaded to: SVG Repo, www.svgrepo.com, Transformed by: SVG Repo Mixer Tools -->
<svg fill="#940505" version="1.1" id="Layer_1" xmlns="http://www.w3.org/2000/svg" xmlns:xlink="http://www.w3.org/1999/xlink" viewBox="0 0 496 496" xml:space="preserve" width="64px" height="64px" stroke="#940505" stroke-width="12.4">
<g id="SVGRepo_bgCarrier" stroke-width="0"/>
<g id="SVGRepo_tracerCarrier" stroke-linecap="round" stroke-linejoin="round"/>
<g id="SVGRepo_iconCarrier"> <g> <g> <g> <polygon points="288,352 272,352 272,336 256,336 256,352 240,352 240,336 224,336 224,352 208,352 208,336 192,336 192,384 208,384 208,368 224,368 224,384 240,384 240,368 256,368 256,384 272,384 272,368 288,368 288,384 304,384 304,336 288,336 "/> <path d="M221.376,237.936c6.848-6.848,10.624-15.96,10.624-25.656c0-20.008-16.272-36.28-36.28-36.28h-19.36 c-22.256,0-40.36,18.104-40.36,40.36c0,6.216,1.472,12.464,4.256,18.056l4.016,8.032C150.92,255.744,164.288,264,179.16,264 c10.424,0,20.208-4.056,27.576-11.424L221.376,237.936z M179.16,248c-8.768,0-16.648-4.864-20.568-12.712l-4.008-8.024 c-1.696-3.376-2.584-7.144-2.584-10.904c0-13.432,10.928-24.36,24.36-24.36h19.36c11.176,0,20.28,9.104,20.28,20.28 c0,5.424-2.112,10.512-5.936,14.344l-14.64,14.64C191.08,245.608,185.304,248,179.16,248z"/> <path d="M319.64,176h-19.36c-20.008,0-36.28,16.272-36.28,36.28c0,9.696,3.776,18.808,10.624,25.656l14.64,14.64 c7.368,7.368,17.16,11.424,27.576,11.424c14.872,0,28.24-8.256,34.888-21.552l4.024-8.04c2.776-5.584,4.248-11.832,4.248-18.048 C360,194.104,341.896,176,319.64,176z M341.432,227.256l-4.016,8.032C333.496,243.136,325.608,248,316.84,248 c-6.152,0-11.92-2.392-16.264-6.736l-14.64-14.64c-3.824-3.824-5.936-8.92-5.936-14.344c0-11.176,9.104-20.28,20.28-20.28h19.36 c13.432,0,24.36,10.928,24.36,24.36C344,220.12,343.112,223.888,341.432,227.256z"/> <path d="M464,400c-3.656,0-7.296,0.656-10.768,1.92l-93.768-93.768C379.344,295.136,392,272.76,392,248v-18.552 c10.616-21.944,16-45.304,16-69.448c0-6.576-0.52-13.024-1.296-19.392l46.528-46.528C456.704,95.344,460.344,96,464,96 c17.648,0,32-14.352,32-32s-14.352-32-32-32c0-17.648-14.352-32-32-32s-32,14.352-32,32c0,3.656,0.656,7.296,1.92,10.768 l-24.088,24.088C348.76,26.456,301.464,0,248,0S147.24,26.456,118.168,66.856L94.08,42.768C95.344,39.296,96,35.656,96,32 C96,14.352,81.648,0,64,0S32,14.352,32,32C14.352,32,0,46.352,0,64s14.352,32,32,32c3.656,0,7.296-0.656,10.768-1.92 l46.528,46.528C88.52,146.976,88,153.424,88,160c0,24.144,5.384,47.504,16,69.448V248c0,24.76,12.656,47.136,32.536,60.152 L42.768,401.92C39.296,400.656,35.656,400,32,400c-17.648,0-32,14.352-32,32s14.352,32,32,32c0,17.648,14.352,32,32,32 s32-14.352,32-32c0-3.656-0.656-7.296-1.92-10.768l58.92-58.92C157.856,420.28,180.656,440,208,440h80 c27.344,0,50.144-19.72,55.008-45.68l58.92,58.92C400.656,456.704,400,460.344,400,464c0,17.648,14.352,32,32,32s32-14.352,32-32 c17.648,0,32-14.352,32-32S481.648,400,464,400z M421.664,45.648l-3.272-5.376C416.808,37.664,416,34.88,416,32 c0-8.824,7.176-16,16-16c8.824,0,16,7.176,16,16c0,2.024-0.512,4.056-1.368,6.056l-4.288,4.288l11.312,11.312l4.248-4.248 C468.592,44.896,480,53.136,480,64c0,8.824-7.176,16-16,16c-2.88,0-5.664-0.808-8.272-2.392l-5.376-3.272l-47.216,47.216 C399.528,107.016,394,93.264,386.72,80.6L421.664,45.648z M92.864,121.552L45.648,74.336l-5.376,3.272 C37.664,79.192,34.88,80,32,80c-8.824,0-16-7.176-16-16c0-10.864,11.416-19.104,22.096-14.592l4.248,4.248l11.312-11.312 l-4.288-4.288C48.512,36.056,48,34.024,48,32c0-8.824,7.176-16,16-16c8.824,0,16,7.176,16,16c0,2.88-0.808,5.664-2.392,8.272 l-3.272,5.376L109.288,80.6C102,93.264,96.472,107.016,92.864,121.552z M152,372.68l-77.664,77.672l3.272,5.376 C79.192,458.336,80,461.12,80,464c0,8.824-7.176,16-16,16s-16-7.176-16-16c0-2.024,0.512-4.056,1.368-6.056l4.288-4.288 l-11.312-11.312l-4.248,4.248C27.416,451.112,16,442.864,16,432c0-8.824,7.176-16,16-16c2.88,0,5.664,0.808,8.272,2.392 l5.376,3.272L151.632,315.68c0.128,0.048,0.24,0.104,0.368,0.144V372.68z M334,302.16l-6,1.552V384c0,22.056-17.944,40-40,40h-80 c-22.056,0-40-17.944-40-40v-80.288l-6-1.552c-24.728-6.376-42-28.656-42-54.16v-22.296l-0.832-1.68 C109.104,203.816,104,182.272,104,160c0-79.4,64.6-144,144-144s144,64.6,144,144c0,22.272-5.104,43.816-15.168,64.024 l-0.832,1.68V248C376,273.504,358.728,295.784,334,302.16z M457.904,446.592l-4.248-4.248l-11.312,11.312l4.288,4.288 c0.856,2,1.368,4.032,1.368,6.056c0,8.824-7.176,16-16,16c-8.824,0-16-7.176-16-16c0-2.88,0.808-5.664,2.392-8.272l3.272-5.376 L344,372.688v-56.856c0.128-0.048,0.248-0.104,0.368-0.144l105.984,105.984l5.376-3.272c2.608-1.592,5.392-2.4,8.272-2.4 c8.824,0,16,7.176,16,16C480,442.864,468.592,451.112,457.904,446.592z"/> <rect x="240" y="144" width="16" height="16"/> <rect x="272" y="144" width="16" height="16"/> <rect x="208" y="144" width="16" height="16"/> </g> </g> </g> </g>
</svg>