<!DOCTYPE svg PUBLIC "-//W3C//DTD SVG 1.1//EN" "http://www.w3.org/Graphics/SVG/1.1/DTD/svg11.dtd">
<!-- Uploaded to: SVG Repo, www.svgrepo.com, Transformed by: SVG Repo Mixer Tools -->
<svg height="64px" width="64px" version="1.1" id="Layer_1" xmlns="http://www.w3.org/2000/svg" xmlns:xlink="http://www.w3.org/1999/xlink" viewBox="0 0 512.00 512.00" xml:space="preserve" fill="#000000">
<g id="SVGRepo_bgCarrier" stroke-width="0"/>
<g id="SVGRepo_tracerCarrier" stroke-linecap="round" stroke-linejoin="round"/>
<g id="SVGRepo_iconCarrier"> <polygon style="fill:#B27214;" points="378.056,30.488 368.171,86.986 143.824,86.986 133.939,30.488 "/> <polygon style="fill:#995C0D;" points="133.939,30.488 143.824,86.986 181.895,86.986 184.182,30.488 "/> <path style="fill:#F95428;" d="M433.926,95.263c5.112,5.112,8.278,12.171,8.278,19.972c0,15.6-12.649,28.249-28.249,28.249h-18.263 H116.316H98.04c-7.8,0-14.859-3.165-19.972-8.278c-5.112-5.112-8.278-12.171-8.278-19.972c0-15.6,12.649-28.249,28.249-28.249 h45.784h224.347h45.784C421.755,86.986,428.814,90.151,433.926,95.263z"/> <g> <path style="fill:#E54728;" d="M142.096,115.235c0-15.6,12.649-28.249,28.249-28.249h-26.521H98.04 c-15.6,0-28.249,12.649-28.249,28.249c0,7.8,3.165,14.859,8.278,19.972s12.171,8.278,19.972,8.278h18.276h54.029 c-7.8,0-14.859-3.165-19.972-8.278C145.261,130.094,142.096,123.035,142.096,115.235z"/> <path style="fill:#E54728;" d="M395.691,143.484v49.728c-93.125-5.401-186.25-5.401-279.375,0v-49.728H395.691z"/> </g> <path style="fill:#F95428;" d="M492.346,233.833c13.666,67.476,13.704,134.965,0.126,202.454 c-4.107,20.424-21.127,35.723-41.89,37.406c-129.727,10.476-259.442,10.476-389.169-0.013c-20.537-1.658-37.67-16.605-41.764-36.803 C5.983,369.389,5.945,301.9,19.536,234.424c4.107-20.424,21.127-35.723,41.89-37.406c18.301-1.482,36.589-2.751,54.89-3.806 c93.125-5.401,186.25-5.401,279.376,0c18.301,1.055,36.589,2.324,54.89,3.806C471.119,198.676,488.264,213.623,492.346,233.833z"/> <path style="fill:#E54728;" d="M127.985,473.68c-20.537-1.658-37.67-16.605-41.764-36.803 C72.554,369.389,72.517,301.9,86.107,234.424c4.107-20.424,21.127-35.723,41.89-37.406c18.301-1.482,36.589-2.751,54.89-3.806 c35.468-2.057,70.934-3.325,106.402-3.816c-57.657-0.796-115.316,0.471-172.974,3.816c-18.301,1.055-36.589,2.324-54.89,3.806 c-20.763,1.683-37.783,16.982-41.89,37.406C5.945,301.9,5.983,369.389,19.649,436.877c4.095,20.198,21.228,35.145,41.764,36.803 c75.977,6.142,151.95,8.659,227.923,7.609C235.554,480.546,181.77,478.029,127.985,473.68z"/> <path style="fill:#333333;" d="M501.582,231.959c-4.88-24.103-25.541-42.332-50.243-44.329c-15.386-1.244-30.799-2.329-46.23-3.276 v-31.447h8.846c20.772,0,37.671-16.899,37.671-37.671s-16.899-37.671-37.671-37.671h-34.572l7.951-45.456 c0.48-2.741-0.278-5.553-2.067-7.683s-4.43-3.36-7.212-3.36H133.942c-2.782,0-5.422,1.23-7.212,3.36 c-1.79,2.13-2.546,4.943-2.067,7.683l7.952,45.456H98.043c-20.772,0-37.671,16.899-37.671,37.671s16.899,37.671,37.671,37.671h8.852 v31.447c-15.431,0.948-30.844,2.034-46.231,3.277c-24.733,1.998-45.446,20.474-50.368,44.93 c-13.767,68.408-13.726,137.78,0.122,206.187c4.88,24.104,25.54,42.332,50.242,44.329c64.817,5.238,130.069,7.857,195.342,7.857 c65.258,0,130.535-2.619,195.337-7.857c24.733-2,45.446-20.475,50.368-44.93C515.472,369.742,515.432,300.37,501.582,231.959z M145.154,39.906h221.69l-6.587,37.66H151.742L145.154,39.906z M79.213,115.236c0-10.383,8.447-18.83,18.83-18.83h45.784h224.346 h45.784c10.384,0,18.83,8.447,18.83,18.83s-8.447,18.83-18.83,18.83H98.043C87.659,134.066,79.213,125.619,79.213,115.236z M125.735,152.91H386.27v30.377c-86.668-4.647-173.868-4.647-260.534,0C125.735,183.286,125.735,152.91,125.735,152.91z M483.233,434.429c-3.272,16.26-17.013,28.542-33.417,29.868c-128.609,10.393-259.032,10.394-387.64,0 c-16.38-1.324-30.07-13.367-33.295-29.288c-13.347-65.934-13.386-132.797-0.117-198.732c3.272-16.26,17.013-28.542,33.417-29.867 c64.302-5.198,129.059-7.795,193.817-7.795s129.516,2.598,193.823,7.795c16.38,1.324,30.072,13.367,33.296,29.287 C496.464,301.635,496.504,368.498,483.233,434.429z"/> <g> <path style="fill:#4D4D4D;" d="M342.993,314.039c4.507,9.502,13.996,15.072,23.874,15.072c3.783,0,7.622-0.816,11.262-2.542 c6.366-3.02,11.175-8.337,13.542-14.972c2.368-6.637,2.008-13.797-1.012-20.164c-2.765-5.828-7.408-10.167-12.861-12.659 c1.584-6.004,1.02-12.308-1.672-17.983c-6.231-13.14-21.993-18.763-35.137-12.529c-13.142,6.233-18.762,21.995-12.529,35.136l0,0 c1.109,2.338,2.532,4.459,4.213,6.333l-14.103,6.687c-11.308-23.123-35.087-39.226-62.281-39.338c-0.098,0-0.193,0-0.29,0 c-18.533,0-35.96,7.196-49.097,20.279c-5.649,5.625-10.202,12.052-13.574,19.018l-14.006-6.643c1.668-1.853,3.099-3.972,4.22-6.337 v-0.001c6.231-13.141,0.61-28.903-12.531-35.136c-13.137-6.233-28.902-0.612-35.136,12.529c-2.692,5.675-3.256,11.979-1.673,17.983 c-5.454,2.492-10.096,6.831-12.861,12.659c-6.233,13.141-0.613,28.903,12.529,35.137c3.639,1.726,7.479,2.542,11.262,2.542 c9.878,0,19.369-5.571,23.875-15.072l0,0c1.123-2.368,1.848-4.821,2.226-7.288l16.266,7.715c-0.701,3.988-1.079,8.06-1.079,12.194 c0,4.269,0.393,8.549,1.164,12.718c0.041,0.219-0.117,0.541-0.381,0.783c-6.739,6.138-10.619,14.685-10.866,23.731l-5.105,2.42 c-0.379-2.467-1.103-4.92-2.226-7.288c-6.233-13.14-21.994-18.761-35.137-12.528c-6.366,3.018-11.174,8.337-13.542,14.972 c-2.366,6.637-2.007,13.797,1.014,20.164l0,0c2.692,5.675,7.217,10.1,12.867,12.672c-1.521,5.799-1.098,12.141,1.666,17.969l0,0 c4.508,9.502,13.996,15.072,23.874,15.072c3.782,0,7.623-0.816,11.262-2.542c13.141-6.233,18.763-21.994,12.531-35.136 c-1.123-2.366-2.564-4.479-4.233-6.332l2.076-0.985c5.459,8.703,14.814,14.793,25.516,15.676v1.794 c0,4.316,2.542,8.244,6.476,10.006c13.545,6.068,28.082,9.103,42.624,9.102c14.538,0,29.081-3.035,42.622-9.102 c3.935-1.762,6.476-5.69,6.476-10.005v-1.795c10.702-0.883,20.058-6.972,25.517-15.677l2.076,0.985 c-1.669,1.854-3.11,3.965-4.233,6.332c-3.02,6.366-3.379,13.527-1.014,20.164c2.368,6.636,7.176,11.954,13.542,14.974 c3.639,1.726,7.479,2.542,11.262,2.542c9.878,0,19.369-5.571,23.875-15.072l0,0c2.692-5.675,3.256-11.979,1.672-17.982 c5.454-2.492,10.096-6.832,12.861-12.66c3.02-6.366,3.379-13.528,1.012-20.164c-2.366-6.637-7.176-11.954-13.542-14.972 c-6.366-3.02-13.528-3.379-20.162-1.012c-6.636,2.366-11.954,7.175-14.974,13.542c-1.11,2.34-1.854,4.789-2.242,7.279l-5.09-2.414 c-0.247-9.045-4.127-17.589-10.866-23.73c-0.269-0.245-0.421-0.569-0.378-0.804c0.842-4.543,1.228-9.204,1.152-13.854 c-0.062-3.756-0.441-7.438-1.088-11.033l16.267-7.714C341.136,309.244,341.881,311.696,342.993,314.039z M152.898,268.863 c1.287-2.716,3.999-4.306,6.822-4.306c1.08,0,2.178,0.234,3.218,0.726c3.754,1.781,5.361,6.284,3.581,10.04 c-1.776,3.738-6.248,5.34-9.99,3.6l-0.053-0.025l-0.001,0.003c-1.818-0.863-3.19-2.382-3.866-4.277 C151.932,272.728,152.035,270.683,152.898,268.863z M151.983,305.965c-1.781,3.754-6.284,5.361-10.04,3.58 c-3.754-1.781-5.361-6.284-3.58-10.039c1.287-2.716,3.999-4.307,6.822-4.307c1.08,0,2.178,0.234,3.218,0.726 C152.158,297.706,153.763,302.21,151.983,305.965z M138.075,367.795c0.676-1.895,2.05-3.415,3.869-4.278 c1.04-0.494,2.137-0.727,3.219-0.727c2.822,0,5.533,1.591,6.822,4.306c1.779,3.752,0.177,8.251-3.571,10.035l-0.01,0.005l0,0l0,0 c-1.818,0.863-3.862,0.966-5.76,0.289c-1.897-0.677-3.417-2.05-4.278-3.87l0,0C137.502,371.736,137.399,369.69,138.075,367.795z M162.936,407.778c-3.757,1.781-8.257,0.175-10.039-3.581l0,0c-1.781-3.754-0.176-8.259,3.58-10.039 c3.753-1.782,8.259-0.176,10.04,3.579C168.297,401.494,166.691,405.997,162.936,407.778z M303.111,379.276 c-0.546,0.028-1.095,0.026-1.63-0.006c-3.935-0.225-7.84,1.188-10.709,3.893c-2.868,2.704-4.513,6.518-4.513,10.459v0.933 c-19.478,7.376-41.037,7.376-60.518,0v-0.931c0-3.943-1.645-7.756-4.513-10.461c-2.869-2.704-6.788-4.126-10.704-3.893 c-0.538,0.031-1.089,0.034-1.632,0.006c-7.383-0.371-13.411-6.449-13.723-13.837c-0.182-4.316,1.54-8.453,4.724-11.355 c5.131-4.676,7.456-11.458,6.216-18.141c-0.563-3.04-0.849-6.164-0.849-9.284c0-13.592,5.304-26.359,14.935-35.951 c9.632-9.591,22.391-14.839,36.017-14.786c27.406,0.112,50.07,22.491,50.519,49.889c0.057,3.4-0.227,6.805-0.84,10.121 c0,0.001,0,0.003,0,0.003c-1.236,6.694,1.088,13.479,6.215,18.151c3.184,2.902,4.905,7.039,4.724,11.354 C316.519,372.826,310.491,378.905,303.111,379.276z M359.102,404.198L359.102,404.198c-1.782,3.754-6.283,5.361-10.04,3.58 c-1.818-0.863-3.193-2.382-3.869-4.278c-0.676-1.895-0.573-3.942,0.289-5.76c1.287-2.716,3.999-4.306,6.822-4.306 c1.069,0,2.154,0.23,3.183,0.712l0.03,0.014v-0.001c0.001,0,0.003,0.001,0.004,0.001c1.819,0.863,3.194,2.383,3.87,4.278 C360.067,400.333,359.964,402.379,359.102,404.198z M360.015,367.096c1.287-2.716,3.999-4.306,6.822-4.306 c1.08,0,2.178,0.234,3.218,0.727c1.819,0.863,3.194,2.382,3.87,4.278c0.676,1.895,0.573,3.942-0.289,5.759l0,0 c-1.781,3.756-6.284,5.36-10.04,3.58c-1.819-0.863-3.193-2.382-3.869-4.278C359.051,370.961,359.154,368.915,360.015,367.096z M373.925,305.266c-0.676,1.895-2.051,3.415-3.87,4.278c-3.756,1.781-8.257,0.173-10.039-3.58l0,0 c-0.863-1.819-0.966-3.865-0.289-5.76c0.676-1.897,2.051-3.415,3.869-4.278c1.04-0.494,2.137-0.727,3.218-0.727 c2.822,0,5.534,1.591,6.823,4.306C374.498,301.325,374.601,303.371,373.925,305.266z M349.761,279.191 c-1.897-0.677-3.417-2.05-4.278-3.869c-1.781-3.754-0.176-8.259,3.58-10.039c3.757-1.784,8.257-0.175,10.04,3.58 c0.863,1.819,0.966,3.864,0.289,5.759c-0.676,1.897-2.051,3.415-3.87,4.278l-0.003,0.001l-0.003-0.005l-0.109,0.052 C353.618,279.763,351.618,279.855,349.761,279.191z"/> <circle style="fill:#4D4D4D;" cx="278.471" cy="358.444" r="9.421"/> <circle style="fill:#4D4D4D;" cx="233.529" cy="358.444" r="9.421"/> <circle style="fill:#4D4D4D;" cx="255.95" cy="375.59" r="9.421"/> </g> </g>
</svg>