<!DOCTYPE svg PUBLIC "-//W3C//DTD SVG 1.1//EN" "http://www.w3.org/Graphics/SVG/1.1/DTD/svg11.dtd">
<!-- Uploaded to: SVG Repo, www.svgrepo.com, Transformed by: SVG Repo Mixer Tools -->
<svg width="64px" height="64px" viewBox="0 0 14.00 14.00" id="meteor-icon-kit__solid-double-chevron-left-xs" fill="none" xmlns="http://www.w3.org/2000/svg" stroke="#d265b7" stroke-width="0.7">
<g id="SVGRepo_bgCarrier" stroke-width="0"/>
<g id="SVGRepo_tracerCarrier" stroke-linecap="round" stroke-linejoin="round"/>
<g id="SVGRepo_iconCarrier">
<path fill-rule="evenodd" clip-rule="evenodd" d="M7.0607 3.06066L4.12132 6L7.0607 8.9393C7.6464 9.5251 7.6464 10.4749 7.0607 11.0607C6.4749 11.6464 5.5251 11.6464 4.93934 11.0607L0.93934 7.0607C0.35355 6.4749 0.35355 5.5251 0.93934 4.9393L4.93934 0.93934C5.5251 0.35355 6.4749 0.35355 7.0607 0.93934C7.6464 1.52513 7.6464 2.47487 7.0607 3.06066zM13.0607 3.06066L10.1213 6L13.0607 8.9393C13.6464 9.5251 13.6464 10.4749 13.0607 11.0607C12.4749 11.6464 11.5251 11.6464 10.9393 11.0607L6.9393 7.0607C6.3536 6.4749 6.3536 5.5251 6.9393 4.9393L10.9393 0.93934C11.5251 0.35355 12.4749 0.35355 13.0607 0.93934C13.6464 1.52513 13.6464 2.47487 13.0607 3.06066z" fill="#909090"/>
</g>
</svg>