<!DOCTYPE svg PUBLIC "-//W3C//DTD SVG 1.1//EN" "http://www.w3.org/Graphics/SVG/1.1/DTD/svg11.dtd">
<!-- Uploaded to: SVG Repo, www.svgrepo.com, Transformed by: SVG Repo Mixer Tools -->
<svg width="64px" height="64px" viewBox="0 0 32 32" xmlns="http://www.w3.org/2000/svg" fill="#000000">
<g id="SVGRepo_bgCarrier" stroke-width="0"/>
<g id="SVGRepo_tracerCarrier" stroke-linecap="round" stroke-linejoin="round"/>
<g id="SVGRepo_iconCarrier">
<title>folder_type_template_opened</title>
<path d="M27.4,5.5H18.2L16.1,9.7H4.3V26.5H29.5V5.5Zm0,18.7H6.6V11.8H27.4Zm0-14.5H19.2l1-2.1h7.1V9.7Z" style="fill:#202020"/>
<polygon points="25.7 13.7 0.5 13.7 4.3 26.5 29.5 26.5 25.7 13.7" style="fill:#202020"/>
<path d="M29.025,14.38H11.974A1.978,1.978,0,0,0,10,16.354V29.029A1.978,1.978,0,0,0,11.974,31H29.025A1.978,1.978,0,0,0,31,29.026V16.354A1.979,1.979,0,0,0,29.025,14.38Z" style="fill:#585858"/>
<path d="M29.925,29.026a.905.905,0,0,1-.9.9H11.974a.905.905,0,0,1-.9-.9V17.62h18.85V29.026Z" style="fill:#cccccc"/>
<rect x="14.9" y="20.246" width="2.8" height="2.801" style="fill:#939393"/>
<rect x="19.1" y="20.246" width="2.8" height="2.801" style="fill:#939393"/>
<rect x="23.3" y="20.246" width="2.8" height="2.801" style="fill:#939393"/>
<rect x="14.9" y="24.446" width="2.8" height="2.8" style="fill:#939393"/>
<rect x="19.1" y="24.446" width="2.8" height="2.8" style="fill:#939393"/>
<rect x="23.3" y="24.446" width="2.8" height="2.8" style="fill:#939393"/>
</g>
</svg>