<?xml version="1.0" encoding="iso-8859-1"?>
<!-- Uploaded to: SVG Repo, www.svgrepo.com, Generator: SVG Repo Mixer Tools -->
<svg fill="#000000" height="64px" width="64px" version="1.1" id="Layer_1" xmlns="http://www.w3.org/2000/svg" xmlns:xlink="http://www.w3.org/1999/xlink" 
	 viewBox="0 0 512 512" xml:space="preserve">
<g>
	<g>
		<g>
			<path d="M255.999,101.758c29.909,0,55.915,21.27,61.836,50.572c0.927,4.59,5.401,7.558,9.991,6.632
				c4.59-0.928,7.559-5.401,6.632-9.991c-7.514-37.184-40.512-64.173-78.46-64.173c-44.133,0-80.043,35.9-80.047,80.028
				c0.005,44.136,35.914,80.042,80.047,80.042c35.479,0,67.111-23.832,76.925-57.955c1.295-4.501-1.305-9.199-5.806-10.493
				c-4.499-1.295-9.199,1.306-10.493,5.806c-7.736,26.897-32.666,45.682-60.626,45.682c-34.783,0-63.084-28.3-63.087-63.083
				C192.915,130.05,221.216,101.758,255.999,101.758z"/>
			<path d="M313.988,425.436c-3.911-2.578-9.169-1.498-11.747,2.412c-14.617,22.171-30.143,43.163-46.239,62.529
				c-41.306-49.724-78.83-110.391-106.243-171.905c-26.465-59.389-41.644-115.384-41.644-153.627
				c0-31.692,9.886-61.914,28.589-87.398c2.771-3.775,1.956-9.082-1.819-11.854c-3.775-2.771-9.082-1.957-11.854,1.819
				c-20.854,28.414-31.876,62.105-31.876,97.433c0,78.455,59.252,228.651,158.409,344.197c1.61,1.877,3.961,2.958,6.435,2.958
				c2.474,0,4.824-1.081,6.436-2.957c18.86-21.977,37.016-46.154,53.964-71.86C318.977,433.274,317.897,428.014,313.988,425.436z"/>
			<path d="M255.999,0c-40.085,0-78.726,14.568-108.808,41.023c-3.517,3.092-3.86,8.45-0.768,11.967
				c3.091,3.516,8.449,3.86,11.967,0.768c26.985-23.729,61.649-36.798,97.609-36.798c81.544,0,147.885,66.341,147.887,147.884
				c0,57.209-32.717,149.001-83.352,233.851c-2.4,4.022-1.085,9.227,2.936,11.628c1.362,0.813,2.859,1.2,4.337,1.2
				c2.888,0,5.703-1.475,7.289-4.135c52.09-87.289,85.748-182.493,85.748-242.543C420.844,73.949,346.895,0,255.999,0z"/>
		</g>
	</g>
</g>
</svg>