<svg xmlns="http://www.w3.org/2000/svg" width="24" height="24" viewBox="0 0 24 24"><path fill="currentColor" d="M4.925 19.025q-1.4-1.425-2.162-3.25T2 11.95q0-2 .75-3.825t2.175-3.25L6.35 6.3Q5.2 7.425 4.6 8.888T4 11.95q0 1.6.613 3.063T6.35 17.6l-1.425 1.425ZM9.5 18q-.625 0-1.063-.437T8 16.5q0-.625.438-1.063T9.5 15q.625 0 1.063.438T11 16.5q0 .625-.438 1.063T9.5 18Zm3.475-5v-1.775l-1.525.9l-1-1.75l1.525-.875l-1.525-.875l1-1.75l1.525.9V6h2v1.775l1.525-.9l1 1.75l-1.525.875l1.525.875l-1 1.75l-1.525-.9V13h-2Zm6.1 6.025L17.65 17.6q1.15-1.125 1.75-2.587t.6-3.063q0-1.6-.613-3.062T17.65 6.3l1.425-1.425q1.4 1.425 2.163 3.25T22 11.95q0 2-.75 3.825t-2.175 3.25Z"/></svg>