<!DOCTYPE svg PUBLIC "-//W3C//DTD SVG 1.1//EN" "http://www.w3.org/Graphics/SVG/1.1/DTD/svg11.dtd">
<!-- Uploaded to: SVG Repo, www.svgrepo.com, Transformed by: SVG Repo Mixer Tools -->
<svg width="64px" height="64px" viewBox="0 0 48 48" xmlns="http://www.w3.org/2000/svg" fill="#000000">
<g id="SVGRepo_bgCarrier" stroke-width="0"/>
<g id="SVGRepo_tracerCarrier" stroke-linecap="round" stroke-linejoin="round"/>
<g id="SVGRepo_iconCarrier">
<title>70 Basic icons by Xicons.co</title>
<path d="M24,3A21,21,0,1,0,45,24,21,21,0,0,0,24,3Z" fill="#afe0f5"/>
<path d="M32,26H16a2,2,0,0,1,0-4H32A2,2,0,0,1,32,26Z" fill="#38b1e7"/>
<path d="M24,34a2,2,0,0,1-2-2V16a2,2,0,0,1,4,0V32A2,2,0,0,1,24,34Z" fill="#38b1e7"/>
</g>
</svg>