<?xml version="1.0" encoding="UTF-8" standalone="no"?>
<!-- FSM Action: a gear (work executed on entry/exit or a transition). -->
<svg xmlns="http://www.w3.org/2000/svg" width="64" height="64" viewBox="0 0 64 64" fill="#0d9488">
  <path fill-rule="evenodd" clip-rule="evenodd" d="M15 32 A17 17 0 1 0 49 32 A17 17 0 1 0 15 32 Z M25 32 A7 7 0 1 0 39 32 A7 7 0 1 0 25 32 Z"/>
  <g>
    <rect x="28.5" y="6" width="7" height="12" rx="1.5" transform="rotate(0 32 32)"/>
    <rect x="28.5" y="6" width="7" height="12" rx="1.5" transform="rotate(45 32 32)"/>
    <rect x="28.5" y="6" width="7" height="12" rx="1.5" transform="rotate(90 32 32)"/>
    <rect x="28.5" y="6" width="7" height="12" rx="1.5" transform="rotate(135 32 32)"/>
    <rect x="28.5" y="6" width="7" height="12" rx="1.5" transform="rotate(180 32 32)"/>
    <rect x="28.5" y="6" width="7" height="12" rx="1.5" transform="rotate(225 32 32)"/>
    <rect x="28.5" y="6" width="7" height="12" rx="1.5" transform="rotate(270 32 32)"/>
    <rect x="28.5" y="6" width="7" height="12" rx="1.5" transform="rotate(315 32 32)"/>
  </g>
</svg>
