<!DOCTYPE svg PUBLIC "-//W3C//DTD SVG 1.1//EN" "http://www.w3.org/Graphics/SVG/1.1/DTD/svg11.dtd">
<!-- Uploaded to: SVG Repo, www.svgrepo.com, Transformed by: SVG Repo Mixer Tools -->
<svg height="64px" width="64px" version="1.1" id="Layer_1" xmlns="http://www.w3.org/2000/svg" xmlns:xlink="http://www.w3.org/1999/xlink" viewBox="0 0 512 512" xml:space="preserve" fill="#000000">
<g id="SVGRepo_bgCarrier" stroke-width="0"/>
<g id="SVGRepo_tracerCarrier" stroke-linecap="round" stroke-linejoin="round"/>
<g id="SVGRepo_iconCarrier"> <path style="fill:#f2efe2;" d="M503.724,199.411c0-30.236-23.835-55.008-53.703-56.516V51.2c0-23.812-19.304-43.116-43.116-43.116 H105.095c-23.812,0-43.116,19.304-43.116,43.116v221.05c-29.866,1.509-53.703,26.273-53.703,56.508 c0,30.236,23.835,55.008,53.703,56.516V460.8c0,23.812,19.304,43.116,43.116,43.116h301.811c23.812,0,43.116-19.304,43.116-43.116 V255.918C479.887,254.409,503.724,229.645,503.724,199.411z M24.444,328.758c0-21.316,16.59-38.817,37.534-40.304v80.61 C41.034,367.578,24.444,350.074,24.444,328.758z M450.021,239.714v-80.61c20.946,1.486,37.534,18.989,37.534,40.307 C487.555,220.727,470.966,238.228,450.021,239.714z"/> <path style="fill:#BFBBA3;" d="M97.011,142.821c0-4.465,3.62-8.084,8.084-8.084h97.011c4.465,0,8.084,3.62,8.084,8.084 c0,4.465-3.62,8.084-8.084,8.084h-97.011C100.63,150.905,97.011,147.286,97.011,142.821z M406.905,361.095h-97.011 c-4.465,0-8.084,3.62-8.084,8.084s3.62,8.084,8.084,8.084h97.011c4.465,0,8.084-3.62,8.084-8.084S411.37,361.095,406.905,361.095z M212.884,285.642H105.095c-4.465,0-8.084,3.62-8.084,8.084c0,4.465,3.62,8.084,8.084,8.084h107.789c4.465,0,8.084-3.62,8.084-8.084 C220.968,289.262,217.349,285.642,212.884,285.642z M406.905,285.642h-97.011c-4.465,0-8.084,3.62-8.084,8.084 c0,4.465,3.62,8.084,8.084,8.084h97.011c4.465,0,8.084-3.62,8.084-8.084C414.989,289.262,411.37,285.642,406.905,285.642z M204.8,218.274c0,4.465,3.62,8.084,8.084,8.084h194.021c4.465,0,8.084-3.62,8.084-8.084c0-4.465-3.62-8.084-8.084-8.084H212.884 C208.42,210.189,204.8,213.809,204.8,218.274z M105.095,226.358h43.116c4.465,0,8.084-3.62,8.084-8.084 c0-4.465-3.62-8.084-8.084-8.084h-43.116c-4.465,0-8.084,3.62-8.084,8.084C97.011,222.738,100.63,226.358,105.095,226.358z M179.469,210.189c-4.465,0-8.084,3.62-8.084,8.084c0,4.465,3.62,8.084,8.084,8.084h1.078c4.465,0,8.084-3.62,8.084-8.084 c0-4.465-3.62-8.084-8.084-8.084H179.469z M246.299,285.642h-1.078c-4.465,0-8.084,3.62-8.084,8.084c0,4.465,3.62,8.084,8.084,8.084 h1.078c4.465,0,8.084-3.62,8.084-8.084C254.383,289.262,250.764,285.642,246.299,285.642z M277.558,285.642h-1.078 c-4.465,0-8.084,3.62-8.084,8.084c0,4.465,3.62,8.084,8.084,8.084h1.078c4.465,0,8.084-3.62,8.084-8.084 C285.642,289.262,282.023,285.642,277.558,285.642z"/> <path style="fill:#FC8059;" d="M263.622,375.194l-41.92,33.082c-2.105,1.661-5.518,1.661-7.622,0 c-1.011-0.798-1.578-1.88-1.578-3.007v-19.921H70.255h-5.389c-31.204,0-56.589-25.385-56.589-56.589 c0-30.3,23.938-55.11,53.895-56.522v16.2c-21.036,1.393-37.726,18.94-37.726,40.321c0,22.289,18.132,40.421,40.421,40.421h5.389 h142.247v-36.089c0-1.127,0.568-2.21,1.578-3.007c2.105-1.661,5.518-1.661,7.622,0l41.92,33.082 C267.831,366.486,267.831,371.871,263.622,375.194z M447.134,142.821h-5.389H299.116v-36.089c0-1.127-0.568-2.21-1.578-3.007 c-2.105-1.661-5.517-1.661-7.622,0l-41.92,33.082c-4.209,3.322-4.209,8.707,0,12.029l41.92,33.082c2.105,1.661,5.517,1.661,7.622,0 c1.011-0.798,1.578-1.88,1.578-3.007v-19.921h142.629h5.389c22.289,0,40.421,18.132,40.421,40.421 c0,21.382-16.69,38.928-37.726,40.321v16.2c29.957-1.412,53.895-26.221,53.895-56.522 C503.724,168.207,478.338,142.821,447.134,142.821z"/> <path style="fill:#4C4C4C;" d="M457.913,134.792V51.2c0-28.231-22.969-51.2-51.2-51.2H104.903c-28.231,0-51.2,22.969-51.2,51.2 v212.956C23.834,265.664,0,290.438,0,320.674c0,31.204,25.385,56.589,56.589,56.589h147.636v28.004c0,3.609,1.696,7.018,4.652,9.353 c0.001,0,0.002,0.001,0.002,0.002c5.028,3.967,12.61,3.966,17.638,0l41.92-33.082c3.962-3.126,6.233-7.632,6.233-12.36 c0-4.729-2.271-9.234-6.232-12.361l-41.92-33.081c-5.028-3.969-12.611-3.968-17.639,0c-2.958,2.335-4.654,5.744-4.654,9.354v28.003 H69.871V51.2c0-19.316,15.716-35.032,35.032-35.032h301.811c19.317,0,35.032,15.716,35.032,35.032v83.537H307.008v-28.004 c0-3.611-1.697-7.021-4.657-9.355c-5.028-3.966-12.609-3.966-17.635,0.001l-41.92,33.082c-3.961,3.126-6.232,7.631-6.233,12.36 c0,4.729,2.271,9.234,6.233,12.361l41.919,33.08c5.028,3.97,12.612,3.969,17.634,0.003c2.961-2.334,4.659-5.744,4.659-9.356v-28.004 H455.41c22.289,0,40.421,18.132,40.421,40.421c0,21.447-16.791,39.048-37.918,40.345v-40.345c0-4.465-3.618-8.084-8.084-8.084 s-8.084,3.62-8.084,8.084V460.8c0,19.316-15.715,35.032-35.032,35.032H104.903c-19.316,0-35.032-15.716-35.032-35.032v-43.116 c0-4.465-3.62-8.084-8.084-8.084s-8.084,3.62-8.084,8.084V460.8c0,28.231,22.969,51.2,51.2,51.2h301.811 c28.231,0,51.2-22.969,51.2-51.2V247.861C487.961,246.548,512,221.692,512,191.326S487.961,136.105,457.913,134.792z M53.703,360.992c-20.947-1.484-37.534-19-37.534-40.319c0-21.319,16.588-38.834,37.534-40.319V360.992z M220.394,339.5 l37.609,29.679l-37.609,29.679L220.394,339.5L220.394,339.5z M290.84,172.499l-37.609-29.678l37.609-29.679V172.499z"/> </g>
</svg>