<!DOCTYPE svg PUBLIC "-//W3C//DTD SVG 1.1//EN" "http://www.w3.org/Graphics/SVG/1.1/DTD/svg11.dtd">
<!-- Uploaded to: SVG Repo, www.svgrepo.com, Transformed by: SVG Repo Mixer Tools -->
<svg fill="#2F5E88" width="64px" height="64px" viewBox="0 0 32.00 32.00" version="1.1" xmlns="http://www.w3.org/2000/svg" stroke="#2F5E88" stroke-width="0.00032">
<g id="SVGRepo_bgCarrier" stroke-width="0"/>
<g id="SVGRepo_tracerCarrier" stroke-linecap="round" stroke-linejoin="round" stroke="#CCCCCC" stroke-width="0.064"/>
<g id="SVGRepo_iconCarrier"> <title>logs</title> <path d="M0 24q0 0.832 0.576 1.44t1.44 0.576h1.984q0 2.496 1.76 4.224t4.256 1.76h6.688q-2.144-1.504-3.456-4h-3.232q-0.832 0-1.44-0.576t-0.576-1.408v-20q0-0.832 0.576-1.408t1.44-0.608h16q0.8 0 1.408 0.608t0.576 1.408v7.232q2.496 1.312 4 3.456v-10.688q0-2.496-1.76-4.256t-4.224-1.76h-16q-2.496 0-4.256 1.76t-1.76 4.256h-1.984q-0.832 0-1.44 0.576t-0.576 1.408 0.576 1.44 1.44 0.576h1.984v4h-1.984q-0.832 0-1.44 0.576t-0.576 1.408 0.576 1.44 1.44 0.576h1.984v4h-1.984q-0.832 0-1.44 0.576t-0.576 1.408zM10.016 24h2.080q0-0.064-0.032-0.416t-0.064-0.576 0.064-0.544 0.032-0.448h-2.080v1.984zM10.016 20h2.464q0.288-1.088 0.768-1.984h-3.232v1.984zM10.016 16h4.576q0.992-1.216 2.112-1.984h-6.688v1.984zM10.016 12h16v-1.984h-16v1.984zM10.016 8h16v-1.984h-16v1.984zM14.016 23.008q0 1.824 0.704 3.488t1.92 2.88 2.88 1.92 3.488 0.704 3.488-0.704 2.88-1.92 1.92-2.88 0.704-3.488-0.704-3.488-1.92-2.88-2.88-1.92-3.488-0.704-3.488 0.704-2.88 1.92-1.92 2.88-0.704 3.488zM18.016 23.008q0-2.080 1.44-3.52t3.552-1.472 3.52 1.472 1.472 3.52q0 2.080-1.472 3.52t-3.52 1.472-3.552-1.472-1.44-3.52zM22.016 23.008q0 0.416 0.288 0.704t0.704 0.288h1.984q0.416 0 0.704-0.288t0.32-0.704-0.32-0.704-0.704-0.288h-0.992v-0.992q0-0.416-0.288-0.704t-0.704-0.32-0.704 0.32-0.288 0.704v1.984z"/> </g>
</svg>