<!DOCTYPE svg PUBLIC "-//W3C//DTD SVG 1.1//EN" "http://www.w3.org/Graphics/SVG/1.1/DTD/svg11.dtd">
<!-- Uploaded to: SVG Repo, www.svgrepo.com, Transformed by: SVG Repo Mixer Tools -->
<svg height="64px" width="64px" version="1.1" id="Layer_1" xmlns="http://www.w3.org/2000/svg" xmlns:xlink="http://www.w3.org/1999/xlink" viewBox="0 0 512 512" xml:space="preserve" fill="#1C274C">
<g id="SVGRepo_bgCarrier" stroke-width="0"/>
<g id="SVGRepo_tracerCarrier" stroke-linecap="round" stroke-linejoin="round"/>
<g id="SVGRepo_iconCarrier"> <path style="fill:#00bd02;" d="M256,78.367c-98.103,0-177.633,79.529-177.633,177.633S157.897,433.633,256,433.633 S433.633,354.103,433.633,256S354.103,78.367,256,78.367z M256,397.061c-77.782,0-141.061-63.279-141.061-141.061 S178.218,114.939,256,114.939S397.061,178.219,397.061,256S333.781,397.061,256,397.061z"/> <path style="fill:#7add7a;" d="M256,78.367c-98.105,0-177.633,79.527-177.633,177.633h36.571 c0-77.782,63.279-141.061,141.061-141.061S397.061,178.218,397.061,256h36.571C433.633,157.895,354.105,78.367,256,78.367z"/> <path style="fill:#00bd02;" d="M256,182.857c-40.331,0-73.143,32.812-73.143,73.143s32.812,73.143,73.143,73.143 s73.143-32.812,73.143-73.143S296.331,182.857,256,182.857z M256,292.571c-20.165,0-36.571-16.406-36.571-36.571 s16.406-36.571,36.571-36.571c20.166,0,36.571,16.406,36.571,36.571C292.571,276.165,276.165,292.571,256,292.571z"/> <g> <path style="fill:#7add7a;" d="M256,182.857c-40.333,0-73.143,32.81-73.143,73.143h36.571c0-20.167,16.405-36.571,36.571-36.571 s36.571,16.405,36.571,36.571h36.571C329.143,215.667,296.333,182.857,256,182.857z"/> <circle style="fill:#7add7a;" cx="256" cy="26.122" r="18.286"/> </g> <g> <circle style="fill:#00bd02;" cx="256" cy="485.878" r="18.286"/> <circle style="fill:#00bd02;" cx="93.456" cy="418.544" r="18.286"/> <circle style="fill:#00bd02;" cx="418.544" cy="418.544" r="18.286"/> </g> <circle style="fill:#7add7a;" cx="418.544" cy="93.456" r="18.286"/> <circle style="fill:#00bd02;" cx="485.878" cy="256" r="18.286"/> <path style="fill:#7add7a;" d="M504.163,256h-36.571c0-10.094,8.192-18.286,18.286-18.286S504.163,245.906,504.163,256z"/> <circle style="fill:#00bd02;" cx="26.122" cy="256" r="18.286"/> <g> <path style="fill:#7add7a;" d="M44.408,256H7.837c0-10.094,8.192-18.286,18.286-18.286S44.408,245.906,44.408,256z"/> <circle style="fill:#7add7a;" cx="93.456" cy="93.456" r="18.286"/> </g> <path d="M256,107.102c-82.103,0-148.898,66.795-148.898,148.898S173.897,404.898,256,404.898S404.898,338.103,404.898,256 S338.103,107.102,256,107.102z M256,321.306c-36.009,0-65.306-29.296-65.306-65.306s29.297-65.306,65.306-65.306 S321.306,219.99,321.306,256S292.009,321.306,256,321.306z M307.425,193.491c-12.099-9.971-27.132-16.497-43.588-18.085v-52.394 c30.841,1.798,58.897,14.134,80.613,33.454L307.425,193.491z M248.163,175.406c-16.456,1.588-31.49,8.114-43.588,18.085 l-37.025-37.025c21.717-19.32,49.772-31.656,80.613-33.454L248.163,175.406L248.163,175.406z M193.492,204.574 c-9.971,12.099-16.497,27.133-18.085,43.589h-52.394c1.798-30.841,14.134-58.897,33.454-80.613L193.492,204.574z M175.406,263.837 c1.588,16.456,8.114,31.49,18.085,43.589l-37.025,37.025c-19.32-21.717-31.656-49.772-33.454-80.613h52.394V263.837z M204.575,318.509c12.099,9.971,27.132,16.497,43.588,18.085v52.394c-30.842-1.798-58.897-14.134-80.613-33.454L204.575,318.509z M263.837,336.594c16.456-1.588,31.489-8.114,43.588-18.085l37.025,37.025c-21.717,19.32-49.772,31.656-80.613,33.454 L263.837,336.594L263.837,336.594z M318.508,307.426c9.971-12.099,16.497-27.133,18.085-43.589h52.394 c-1.798,30.842-14.134,58.897-33.454,80.613L318.508,307.426z M336.594,248.163c-1.588-16.456-8.114-31.49-18.085-43.589 l37.025-37.025c19.32,21.717,31.656,49.772,33.454,80.613h-52.394V248.163z"/> <path d="M256,211.592c-24.487,0-44.408,19.921-44.408,44.408s19.921,44.408,44.408,44.408s44.408-19.921,44.408-44.408 S280.487,211.592,256,211.592z M256,284.735c-15.845,0-28.735-12.891-28.735-28.735s12.89-28.735,28.735-28.735 s28.735,12.891,28.735,28.735S271.845,284.735,256,284.735z"/> <path d="M485.878,229.878c-11.675,0-21.583,7.699-24.92,18.286h-19.665c-1.89-45.238-20.056-86.338-48.788-117.584l13.959-13.959 c3.686,1.929,7.806,2.955,12.085,2.955c6.978,0,13.538-2.718,18.472-7.651c10.186-10.186,10.186-26.758,0.001-36.941 c-4.934-4.935-11.495-7.652-18.472-7.652c-6.978,0-13.538,2.718-18.472,7.651c-8.255,8.256-9.818,20.706-4.692,30.551 l-13.965,13.965c-31.247-28.734-72.347-46.899-117.584-48.789V51.042c10.587-3.336,18.286-13.245,18.286-24.92 C282.122,11.719,270.404,0,256,0s-26.122,11.719-26.122,26.122c0,11.675,7.699,21.583,18.286,24.92v19.666 c-45.238,1.89-86.338,20.056-117.584,48.788l-13.965-13.965c5.126-9.845,3.564-22.295-4.691-30.55 c-4.934-4.935-11.494-7.652-18.472-7.652s-13.538,2.718-18.472,7.651c-10.186,10.186-10.186,26.757-0.001,36.941 c4.934,4.935,11.495,7.652,18.472,7.652c4.279,0,8.399-1.026,12.085-2.955l13.959,13.959 c-28.732,31.248-46.896,72.348-48.786,117.585H51.043c-3.337-10.587-13.246-18.286-24.921-18.286C11.719,229.878,0,241.596,0,256 s11.719,26.122,26.122,26.122c11.675,0,21.583-7.699,24.92-18.286h19.665c1.89,45.238,20.056,86.338,48.788,117.584l-13.959,13.959 c-3.686-1.929-7.806-2.955-12.085-2.955c-6.978,0-13.538,2.718-18.472,7.651c-10.186,10.186-10.186,26.757-0.001,36.941 c4.934,4.935,11.495,7.652,18.472,7.652c6.978,0,13.538-2.718,18.472-7.651c8.255-8.256,9.818-20.706,4.692-30.551l13.965-13.965 c31.247,28.733,72.346,46.898,117.584,48.788v19.665c-10.587,3.338-18.286,13.247-18.286,24.922 C229.878,500.281,241.596,512,256,512s26.122-11.719,26.122-26.122c0-11.675-7.699-21.583-18.286-24.92v-19.665 c45.238-1.89,86.338-20.056,117.584-48.788l13.965,13.965c-5.126,9.845-3.564,22.295,4.691,30.55 c4.934,4.935,11.494,7.652,18.472,7.652c6.978,0,13.538-2.718,18.472-7.651c10.186-10.186,10.186-26.757,0.001-36.942 c-4.934-4.935-11.495-7.652-18.472-7.652c-4.279,0-8.399,1.026-12.085,2.955l-13.959-13.959 c28.733-31.247,46.898-72.346,48.788-117.584h19.665c3.335,10.586,13.244,18.285,24.919,18.285C500.281,282.122,512,270.404,512,256 S500.281,229.878,485.878,229.878z M411.16,86.063c1.974-1.974,4.598-3.061,7.388-3.061c2.791,0,5.415,1.087,7.388,3.062 c4.074,4.073,4.074,10.702,0,14.776l-0.001,0.001c-1.974,1.974-4.598,3.061-7.388,3.061c-2.791,0-5.415-1.087-7.388-3.062 C407.085,96.766,407.085,90.138,411.16,86.063z M256,15.673c5.762,0,10.449,4.687,10.449,10.449S261.762,36.571,256,36.571 c-5.762,0-10.449-4.687-10.449-10.449S250.238,15.673,256,15.673z M86.064,100.841L86.064,100.841 c-4.074-4.074-4.074-10.703,0-14.778c1.974-1.974,4.598-3.061,7.388-3.061c2.791,0,5.415,1.087,7.388,3.062 c4.074,4.073,4.074,10.702,0,14.777c-1.974,1.974-4.598,3.061-7.388,3.061C90.662,103.902,88.037,102.814,86.064,100.841z M26.122,266.449c-5.762,0-10.449-4.687-10.449-10.449c0-5.762,4.687-10.449,10.449-10.449S36.571,250.238,36.571,256 C36.571,261.762,31.884,266.449,26.122,266.449z M100.841,425.936v0.001c-1.974,1.974-4.598,3.06-7.388,3.06 c-2.791,0-5.415-1.087-7.388-3.062c-4.074-4.073-4.074-10.702,0-14.777c1.974-1.974,4.598-3.06,7.388-3.06 c2.791,0,5.415,1.087,7.388,3.062C104.915,415.234,104.915,421.862,100.841,425.936z M256,496.327 c-5.762,0-10.449-4.687-10.449-10.449s4.687-10.449,10.449-10.449c5.762,0,10.449,4.687,10.449,10.449S261.762,496.327,256,496.327z M425.937,411.16c4.074,4.073,4.074,10.702-0.001,14.777c-1.974,1.974-4.598,3.06-7.388,3.06c-2.791,0-5.415-1.087-7.388-3.06 v-0.001c-4.074-4.073-4.074-10.702,0-14.777c1.974-1.974,4.598-3.06,7.388-3.06C421.338,408.098,423.963,409.185,425.937,411.16z M256,425.796c-93.626,0-169.796-76.17-169.796-169.796S162.374,86.204,256,86.204S425.796,162.375,425.796,256 S349.626,425.796,256,425.796z M485.878,266.449c-5.762,0-10.449-4.687-10.449-10.449c0-5.762,4.687-10.449,10.449-10.449 s10.449,4.687,10.449,10.449C496.327,261.762,491.639,266.449,485.878,266.449z"/> </g>
</svg>