<!DOCTYPE svg PUBLIC "-//W3C//DTD SVG 1.1//EN" "http://www.w3.org/Graphics/SVG/1.1/DTD/svg11.dtd">
<!-- Uploaded to: SVG Repo, www.svgrepo.com, Transformed by: SVG Repo Mixer Tools -->
<svg version="1.1" id="Layer_1" xmlns="http://www.w3.org/2000/svg" xmlns:xlink="http://www.w3.org/1999/xlink" viewBox="0 0 512 512" xml:space="preserve" width="64px" height="64px" fill="#1C274C">
<g id="SVGRepo_bgCarrier" stroke-width="0"/>
<g id="SVGRepo_tracerCarrier" stroke-linecap="round" stroke-linejoin="round"/>
<g id="SVGRepo_iconCarrier"> <rect x="60.771" y="181.966" style="fill:#D0FBFD;" width="390.457" height="241.058"/> <rect x="256" y="181.966" style="fill:#D0FBFD;" width="195.229" height="241.058"/> <rect y="438.698" style="fill:#575576;" width="512" height="72.652"/> <path style="fill:#7add7a;" d="M45.098,166.288v272.405h421.804V166.288L45.098,166.288L45.098,166.288z M435.555,407.346H76.445 V197.635h359.111V407.346z"/> <polygon style="fill:#00bd02;" points="466.902,166.288 466.902,438.693 256,438.693 256,407.346 435.555,407.346 435.555,197.635 256,197.635 256,166.288 "/> <rect x="256" y="438.698" style="fill:#1C274C;" width="256" height="72.652"/> <rect x="245.164" y="466.283" style="fill:#FFFFFF;" width="21.671" height="21.682"/> <rect x="256" y="466.283" style="fill:#D9D8DB;" width="10.836" height="21.682"/> <polygon style="fill:#575576;" points="364.669,149.757 316.322,149.757 316.322,270.474 195.678,270.474 195.678,149.757 147.331,149.757 256,0.65 "/> <polygon style="fill:#1C274C;" points="316.322,270.474 256,270.474 256,0.65 364.669,149.757 316.322,149.757 "/> </g>
</svg>